<?xml version="1.0" encoding="UTF-8"?>
<svg id="Layer_3" data-name="Layer 3" xmlns="http://www.w3.org/2000/svg" viewBox="0 0 2500 2000">
  <defs>
    <style>
      .cls-1 {
        fill: #231f20;
      }
    </style>
  </defs>
  <path class="cls-1" d="m1696.92,1406.66c4.07-5.22,23.95-31.26,35.25-73.95,13.79-52.14,6.13-96.39.99-124.35-10.02-54.47-30.32-92.59-42.82-115.62-15.99-29.45-43.31-71.83-88.24-114.01,11.19-3.78,26.95-10.05,44.39-20.46,16.16-9.65,32.3-19.29,46.49-37.8,18.06-23.55,22.43-47.74,23.39-53.69,8.88-55.26-26.31-96.55-30.63-101.45-22.48-25.52-49.56-35.2-62.58-38.87,7.1-12.08,16.42-29.36,25.36-51.06,8.41-20.39,12.62-30.61,14.82-44.47,6.07-38.27-8.71-69.82-13.18-79.05-17.59-36.33-45.53-54.34-57.64-61.93-10.71-6.71-32.92-20.27-65.22-23.39-36.62-3.53-64.1,8.5-74.44,13.18-29.13,13.18-46.33,32.07-57.97,45.13-13.14,14.74-20.4,27.17-34.92,52.04-4.22,7.24-15.76,27.35-29.32,56.99-10.18,22.24-22.29,51.6-33.6,87.29-8.51-10.32-21.64-23.6-40.52-34.75-38.32-22.63-76.24-22.25-92.56-21.08.09-6.43.99-54.57,11.36-78.07,3.37-7.64,7.22-11.47,9.39-13.34,6.62-5.71,13.74-7.04,24.38-8.89,34.2-5.95,34.69-5.04,40.84-7.58,6.73-2.77,20.35-8.39,25.86-22.07.84-2.09,5.73-14.9-.66-25.2-7.9-12.73-27.23-12.26-36.89-12.02-13.16.32-22.42,4.16-35.41,9.55-17.34,7.2-28.04,11.64-38.21,22.56-13.16,14.14-17.01,30.12-19.21,39.25-2.65,10.99-2.52,18.2-2.2,42.6.12,9.3.36,27.52.66,54.02-15.52,1.89-35.88,6.35-57.56,17.05-52.77,26.04-77.39,71.33-85.89,89.18-26.1-.44-53.94-.77-89.1-1.04-17.43-.14-33.19-.06-48.86,9.77-11.34,7.11-17.2,15.93-24.05,26.46-20.89,32.15-24.39,66.91-16.54,82.82,1.96,3.96,4.31,6.12,5.61,7.16,10.22,8.17,25.44,2.97,26.85,2.47,6.76-2.41,13.28-7.3,19.66-17.12,18.84-29.01,3.29-50.18,18.72-68.69,7.16-8.59,19.48-11.49,44.14-17.29,23.93-5.63,44.35-6.94,58.47-7.08-1.54,5.73-3.45,13.82-4.89,23.61-2.35,16.04-6.49,46.69,4.89,82.29,8.28,25.91,21.17,43.14,28.11,52.26,13.57,17.82,27.89,30.1,38.59,37.99-8.07,2.64-20.32,6.66-35.25,11.53-59.92,19.56-60.88,19.64-68.79,22.51-13.83,5.01-46.23,17.53-83.23,40.19-21.01,12.87-45.27,27.96-69.83,54.9-17.02,18.66-24.77,32.69-27.45,37.77-5.67,10.74-14.62,28.09-16.91,52.04-2.89,30.29,6.55,53.49,11.86,66.1,2.89,6.87,13.47,30.62,37.11,53.25,19.31,18.49,37.98,27.26,42.49,29.32,21.72,9.89,40.39,11.95,47.1,12.52,23.85,2,41.88-2.75,53.53-5.93,31.25-8.53,54.86-23.94,70.66-36.89,1.2,7.67,3.87,19.18,10.49,31.62,11.74,22.09,28.72,33.6,39.69,40.84,8.54,5.64,29.83,19.34,61.05,22.18,8.82.8,30.14,2.51,54.3-6.92,39.13-15.27,57.29-48.64,62.3-58.74,9.74,10.11,22.85,22.78,39.31,36.23,34.78,28.43,66.08,45.31,81.69,53.14,22.04,11.06,54.34,26.97,99.92,35.57,23.24,4.39,53.91,9.9,93.33,3.73,32.69-5.11,58.09-16.18,74.44-24.81,29.38,25.89,58.76,51.77,88.14,77.66.73.64,1.8-.22,1.33-1.06-18.53-33.8-37.07-67.61-55.6-101.41,6.28-5.56,14.66-13.74,23.22-24.7Zm-71.64-650.55c15.81,3.63,25.9,10.5,28.41,12.27,16.79,11.82,24.19,27.52,28.41,36.48,3.21,6.81,6.98,16.68,8.89,28.99.96,6.2,2.3,15.21.66,26.57-.42,2.9-2.3,14.79-10.32,28.99-12.36,21.89-30.48,33.66-46.33,43.7-8.98,5.69-25.97,15.58-53.58,25.03-7.73,2.65-36.88,12.31-84.11,17.35-49.57,5.29-87.93,2.15-115.29-.22-23.98-2.08-53.57-5.86-87.18-12.96,4.26-5.2,10.66-12.87,18.67-21.9,48.72-54.96,96.78-92.51,131.26-116.44,4.7-3.26,55.03-37.81,114.24-60.39,14.22-5.42,38.57-13.82,66.26-7.47Zm-403.26,168.49c11.55-8.87,22.68-14.59,31.46-18.28-.02,3.83-.06,12.25-.08,23.3-.03,14.23,0,15.7-1.32,17.87-4.65,7.7-16.59,8.51-38.46,9.72-9.43.52-17.24.43-22.56.25,6.18-9.1,16.08-21.42,30.96-32.86Zm-195.08,333.95c-3.67,14.41-5.6,26.32-6.59,33.38-12.28,12.3-43.56,40.2-89.6,46.55-10.01,1.38-29.65,3.89-53.58-3.07-6.25-1.82-24.61-7.72-43.37-23.17-5.29-4.36-24.36-20.8-36.56-49.74-4.89-11.59-14.83-36.03-9.66-66.32,4.88-28.58,20.6-47.06,35-63.55,25.13-28.78,52-43.78,65.58-51.08,93.73-50.42,186.73-74.34,198.51-77.3,37.72-9.48,89.5-20.38,152.4-27.23-31.26,28.46-55.58,53.27-72.03,70.71-114.83,121.71-134.55,189.02-140.1,210.81Zm222.89,40.08c-5.04,16.23-12.78,38.26-31.84,59.13-8.96,9.81-24.78,27.13-51.39,33.43-33.2,7.87-60.45-6.81-69.83-11.86-9.91-5.34-29.28-15.76-40.19-38.21-8.17-16.82-7.72-32.42-7.36-44.96.7-24.15,7.69-42.35,11.31-51.22,30.27-74.06,77.08-131.76,77.08-131.76,25.81-31.82,64.91-74.07,120.45-116,11.41,44.71,15.5,82.43,17.07,108.84.24,4.08,4.93,95.14-25.31,192.61Zm27.89-359.81c.2-14.16,1.1-34.73,4.39-59.29,2.85-21.23,7.72-47.14,31.18-121.66,17.36-55.15,26.04-82.73,38.21-110.24,16.47-37.25,32.76-65.1,52.26-90.47,13.1-17.04,28.02-33.45,49.63-47.43,9.49-6.14,20.74-13.28,37.33-17.13,23.35-5.42,42.47-.9,51.39,1.32,38.03,9.45,60.14,34.66,69.61,45.46,13.71,15.64,19.14,28.67,20.97,33.43,3.96,10.31,5.22,18.72,5.6,21.58,1.65,12.34.31,21.62-1.32,32.28-1.06,6.99-3.75,21.86-10.87,39.86-3.99,10.09-7.71,16.83-15.15,30.3-8.82,15.97-13.33,24.02-18.28,27.34-8.59,5.75-13.7,3.11-34.92,7.74,0,0-8.96,1.96-26.35,7.74-11.62,3.86-30.53,11.42-65.38,33.27-40.76,25.56-69.15,49.24-76.75,55.67-18.78,15.87-31.24,28.19-54.68,51.39-24.06,23.81-43.39,44.25-56.88,58.85Zm19,245.84c1.21-18.44,1.95-36.24,2.31-53.36,35.69-45.69,72.89-67.3,94.21-77.41,23.6-11.19,47.59-17.69,57.64-20.42,23.63-6.41,41.51-8.94,71.85-13.13,19.35-2.67,45.64-5.83,77.2-8.19,8.99,9.19,18.44,19.71,27.94,31.65,8.22,10.33,15.4,20.37,21.67,29.87-12.92-.12-31.7.1-54.28,1.82-40.49,3.09-87.54,7.06-140.65,29.32-27.9,11.69-47.47,24.24-53.69,28.33-26.49,17.41-43.8,34.52-60.47,51.16-13.42,13.4-30.59,32.02-48.67,56.04,1.99-17.77,3.68-36.35,4.94-55.67Zm172.93,138.18c-18.04,24.23-29.04,47.49-38.21,66.87-8.02,16.95-13.82,31.65-17.79,42.49-12.91-3.01-29.83-8.35-48.09-18.28-14.67-7.98-26.24-16.76-34.92-24.38,2.27-9.66,6.04-22.77,12.52-37.55,3.62-8.25,13.66-29.77,35.25-55.67,30.35-36.42,63.42-57.41,83.34-69.83,11.29-7.04,56.24-34.35,122.97-52.59,40.55-11.09,77.19-15.56,107.16-17.02,3.78,8.19,7.61,18.01,10.73,29.34,4.03,14.61,5.8,27.8,6.51,38.62-21.39-2.83-53.93-4.67-92.23,3.09-15.51,3.14-40.47,8.4-69.06,24.03-41.98,22.94-65.5,53.85-78.18,70.87Zm174.36,99.53c-23.55,18.45-45.95,25.48-57.53,28.99-32.76,9.93-60.03,8.4-74.22,7.47-12.82-.84-23.45-2.63-30.96-4.17,1.13-4.27,3.19-11.44,6.59-19.98,36.39-91.5,140.55-125.82,157.23-131.32,14.59-4.81,37.08-10.94,65.88-13.61-1.22,19.73-6.2,53.3-27.23,87.4-16.33,26.48-35.13,41.62-39.75,45.24Z"/>
</svg>